<?xml version="1.0" encoding="utf-8"?>
<!-- Generator: Adobe Illustrator 15.1.0, SVG Export Plug-In . SVG Version: 6.00 Build 0)  -->
<!DOCTYPE svg PUBLIC "-//W3C//DTD SVG 1.1//EN" "http://www.w3.org/Graphics/SVG/1.1/DTD/svg11.dtd">
<svg version="1.1" id="Layer_1" xmlns="http://www.w3.org/2000/svg" xmlns:xlink="http://www.w3.org/1999/xlink" x="0px" y="0px"
	 width="99.834px" height="94.242px" viewBox="0 0 99.834 94.242" enable-background="new 0 0 99.834 94.242" xml:space="preserve">
<path fill="#086879" d="M99.834,48.09c0-11.32-4.104-21.695-10.893-29.733c1.351-1.768,2.144-3.982,2.101-6.379
	C90.942,6.333,86.285,1.839,80.64,1.939c-3.278,0.059-6.161,1.66-7.989,4.093c-5.106-2.313-10.7-3.733-16.587-4.034
	c-0.307-0.675-0.552-1.229-0.703-1.577c0.06-0.224,0.093-0.344,0.093-0.344s-0.077,0.016-0.218,0.058
	C55.198,0.049,55.177,0,55.177,0l-0.075,0.178C54.873,0.25,54,0.835,52.762,1.961C29.685,2.416,10.718,19.884,7.905,42.318
	c-4.6,1.066-7.99,5.225-7.903,10.134c0.098,5.454,4.451,9.82,9.836,10.02c6.06,18.426,23.418,31.77,43.845,31.77
	c7.096,0,13.82-1.612,19.832-4.485c1.908,2.052,4.64,3.323,7.662,3.271c5.645-0.102,10.139-4.758,10.038-10.402
	c-0.036-2.027-0.668-3.9-1.714-5.472C95.956,69.212,99.834,59.097,99.834,48.09z M45.703,50.662
	c0.096,3.475,0.717,16.162,0.717,16.162c-6.256-9.563-0.838-38.297,1.877-39.555C48.296,27.269,45.453,41.533,45.703,50.662z
	 M14.803,61.398c3.4-1.71,5.711-5.248,5.64-9.309c-0.083-4.625-3.227-8.473-7.464-9.658C15.485,24.319,29.831,9.947,47.928,7.399
	c-5.464,7.388-11.748,20.682-9.999,41.033c1.774,20.646,11.436,34.479,16.847,40.731c-0.364,0.01-0.727,0.027-1.094,0.027
	C35.676,89.191,20.347,77.548,14.803,61.398z M57.727,88.99l-0.337-1.846c-8.6-7.76-8.197-13.152-8.197-13.152
	c1.707-7.213,13.023-8.453,15.844-24.748l-13.018,1.176c-0.003-0.031-0.006-0.061-0.008-0.09c3.394-0.646,14.316-3.078,14.471-7.593
	c0.184-5.347-1.576-23.73-1.951-21.043C63.568,28.571,50.49,34.56,50.49,34.56s15.979-17.573,11.795-21.509
	c-1.039-0.977-2.408-3.321-3.668-5.756c4.268,0.513,8.334,1.682,12.1,3.404c-0.077,0.537-0.124,1.083-0.114,1.642
	c0.101,5.645,4.758,10.139,10.402,10.038c1.418-0.025,2.763-0.339,3.98-0.882c6.104,7.174,9.8,16.458,9.8,26.593
	c0,9.706-3.389,18.63-9.035,25.669c-1.474-0.775-3.155-1.204-4.938-1.172c-5.645,0.1-10.139,4.756-10.038,10.4
	c0.015,0.803,0.13,1.577,0.318,2.322C66.962,87.25,62.463,88.525,57.727,88.99z"/>
</svg>
